<svg xmlns="http://www.w3.org/2000/svg" width="256" height="256"><path fill="#1976D2" fill-opacity=".016" fill-rule="evenodd" d="M0 128.004v128.004l128.25-.254 128.25-.254.254-127.75L257.008 0H0zm.485.496c0 70.4.119 99.053.265 63.672s.146-92.98 0-128S.485 58.1.485 128.5"/><path fill="#1976D2" fill-opacity=".187" fill-rule="evenodd" d="M0 100.5C0 155.775.2 201 .444 201s12.269-6.75 26.722-15 26.628-15 27.056-15 .778 5.85.778 13c0 17.431-.431 17 17 17 7.15 0 13 .4 13 .889 0 .49-6.75 12.689-15 27.111s-15 26.396-15 26.611 45.152.389 100.337.389h100.337l.663-42.164c.365-23.19.663-80.79.663-128V0H0zm.481.5c0 55.275.121 77.887.269 50.25.148-27.638.148-72.863 0-100.5C.602 23.112.481 45.725.481 101m56.974-43.545L55 59.909v54.629c0 30.179.386 54.479.862 54.295.474-.183 16.855-9.489 36.403-20.68l35.54-20.348 20.348-35.54c11.191-19.548 20.497-35.929 20.68-36.403.184-.476-24.116-.862-54.295-.862H59.909zm106.455 50.243-35.589 20.479-18.211 31.876c-10.016 17.532-19.352 33.917-20.746 36.412L86.829 201h109.262l2.454-2.455 2.455-2.454v-54.546c0-30-.338-54.496-.75-54.436s-16.765 9.325-36.34 20.589"/><path fill="#1976D2" fill-opacity=".618" fill-rule="evenodd" d="M0 100.615V201.23l2.25-1.437c1.238-.79 13.613-7.911 27.5-15.824L55 169.58v-55.29c0-53.957.048-55.338 2-57.29s3.333-2 57.435-2h55.435l-19.026 33.25c-10.464 18.287-19.684 34.511-20.488 36.053l-1.462 2.803 2.803-1.462c1.542-.804 17.766-10.024 36.053-20.488L201 86.13v55.435c0 54.102-.048 55.483-2 57.435s-3.333 2-57.286 2H86.428L70.85 228.25 55.273 255.5l100.025.255c55.014.14 100.24.04 100.502-.221.261-.262.704-57.864.983-128.005L257.291 0H0zm.481.385c0 55.275.121 77.887.269 50.25.148-27.638.148-72.863 0-100.5C.602 23.112.481 45.725.481 101M91 149.285l-35.5 20.28-.279 13.234c-.274 12.973-.23 13.283 2.234 15.746s2.773 2.508 15.746 2.234l13.235-.279 18.334-32c18.29-31.923 22.512-39.502 22-39.498-.148.002-16.245 9.129-35.77 20.283"/><path fill="#1976D2" fill-opacity=".14" fill-rule="evenodd" d="M1 100.615v99.615l2.25-1.439c1.238-.792 13.152-7.645 26.476-15.229l24.225-13.788.275-55.36.274-55.36 2.277-2.277 2.277-2.277 55.473-.275c30.51-.151 55.472.074 55.471.5s-9.152 16.788-20.335 36.36l-20.334 35.586 35.586-20.334c19.572-11.183 35.934-20.334 36.36-20.335s.651 24.961.5 55.471l-.275 55.473-2.277 2.277-2.277 2.277-55.355.274-55.355.275-15.118 26.473C62.803 243.083 56 255.224 56 255.503s44.887.392 99.75.252l99.75-.255.254-127.25L256.008 1H1zm91 48.383c-18.975 10.9-35.062 20.327-35.75 20.949-1.872 1.695-1.704 23.275.21 26.976 1.882 3.638 3.656 4.047 17.656 4.063l11.616.014 20.561-36c11.309-19.8 20.482-35.959 20.384-35.909-.097.049-15.702 9.008-34.677 19.907"/></svg>